<svg fill="none" height="24" viewBox="0 0 24 24" width="24" xmlns="http://www.w3.org/2000/svg" xmlns:xlink="http://www.w3.org/1999/xlink"><linearGradient id="paint0_linear_1_908" gradientUnits="userSpaceOnUse" x1="12" x2="12" y1="2.25" y2="21.75"><stop offset="0" stop-color="#a3a3ff"/><stop offset="1" stop-color="#1f1fff"/></linearGradient><g clip-rule="evenodd" fill="url(#paint0_linear_1_908)" fill-rule="evenodd"><path d="m15.3936 5.21039c-.8902.13488-1.6132.57001-1.8633.82006l-.9696.96968 4.4393 4.43937.9697-.9697c-.0001 0 0 0 0 0 .25-.2501.6851-.97311.82-1.86329.1289-.8509-.0245-1.78052-.82-2.57605-.7956-.79554-1.7252-.94899-2.5761-.82007zm-.2247-1.48307c1.2116-.18358 2.657.038 3.8614 1.24248 1.2045 1.20447 1.4261 2.64982 1.2425 3.86142-.1776 1.17228-.7425 2.19928-1.2425 2.69918l-1.5 1.5001c-.2929.2929-.7677.2929-1.0606 0l-5.5-5.50004c-.1407-.14065-.2197-.33142-.2197-.53033s.079-.38968.2197-.53033l1.5-1.49999c.4999-.49999 1.5269-1.06488 2.6992-1.24249z"/><path d="m21.5303 2.46967c.2929.29289.2929.76777 0 1.06066l-2.5 2.5c-.2929.29289-.7677.29302-1.0606.00013s-.2929-.7679 0-1.06079l2.5-2.5c.2929-.29289.7677-.29289 1.0606 0z"/><path d="m6.99962 10.75c.19891 0 .38968.079.53033.2197l5.49995 5.5c.2929.2929.2929.7677 0 1.0606l-1.4999 1.5c-.5.5-1.527 1.0649-2.69928 1.2425-1.2116.1836-2.65696-.038-3.86143-1.2425m0 0c-1.20447-1.2044-1.42603-2.6498-1.24246-3.8614.17762-1.1723.7425-2.1992 1.24244-2.6992l1.50002-1.5c.14065-.1407.33142-.2197.53033-.2197m0 1.8107-.96965.9696c-.00001 0 0 0 0 0-.25006.2501-.68519.9731-.82007 1.8633-.12892.8509.02452 1.7805.82005 2.5761.79553.7955 1.72517.949 2.57606.8201.89021-.1349 1.61319-.5701 1.86329-.8201l.9697-.9697z"/><path d="m14.0303 13.4697c.2929.2929.2929.7677 0 1.0606l-2 2c-.2929.2929-.7677.2929-1.0606 0s-.2929-.7677 0-1.0606l2-2c.2929-.2929.7677-.2929 1.0606 0z"/><path d="m6.02995 17.9697c.29289.2929.29327.7677.00038 1.0606l-2.5 2.5c-.29289.2929-.76777.2929-1.06066 0s-.29289-.7677 0-1.0606l2.5-2.5c.29289-.2929.76739-.2929 1.06028 0z"/><path d="m10.5303 9.96967c.2929.29293.2929.76773 0 1.06063l-1.99997 2c-.29289.2929-.76777.2929-1.06066 0s-.29289-.7677 0-1.0606l2-2.00003c.29289-.29289.76773-.29289 1.06063 0z"/></g></svg>