<svg id="Capa_1" enable-background="new 0 0 512 512" height="512" viewBox="0 0 512 512" width="512" xmlns="http://www.w3.org/2000/svg"><g><g><path clip-rule="evenodd" d="m443.521 104.948-46.198-46.199c-7.593-7.622-20.062-7.622-27.654 0l-15.944 15.945c-17.025-10.104-35.568-17.872-55.221-22.895v-22.545c0-10.747-8.819-19.537-19.565-19.537h-65.325c-10.776 0-19.565 8.79-19.565 19.537v22.545c-19.653 5.023-38.196 12.791-55.221 22.895l-15.944-15.945c-7.622-7.622-20.062-7.622-27.654 0l-46.2 46.199c-7.622 7.593-7.622 20.033 0 27.655l15.944 15.945c-10.104 17.025-17.872 35.569-22.894 55.223h-22.544c-10.746 0-19.536 8.79-19.536 19.566v65.327c0 10.747 8.79 19.566 19.536 19.566h22.544c5.023 19.654 12.791 38.197 22.894 55.223l-15.944 15.944c-7.622 7.593-7.622 20.062 0 27.655l46.198 46.199c7.593 7.622 20.033 7.622 27.654 0l15.944-15.945c17.025 10.104 35.568 17.872 55.221 22.895v22.545c0 10.747 8.79 19.537 19.565 19.537h65.325c10.746 0 19.565-8.79 19.565-19.537v-22.545c13.9-3.563 27.275-8.498 39.948-14.66l140.462-138.246c7.885-2.511 13.637-9.929 13.637-18.631v-65.327c0-10.776-8.79-19.566-19.536-19.566h-22.544c-5.023-19.654-12.79-38.197-22.894-55.223l15.944-15.945c7.624-7.622 7.624-20.062.002-27.655z" fill="#375e7d" fill-rule="evenodd"/></g><g><path clip-rule="evenodd" d="m276.894 400.51c13.345-2.803 26.019-7.418 37.758-13.579 32.122-8.498 64.42-48.74 76.509-102.152 1.84-9.316 2.803-18.923 2.803-28.794 0-81.564-66.113-147.679-147.704-147.679-81.561 0-147.675 66.115-147.675 147.679 0 71.08 50.198 130.42 117.071 144.525z" fill="#fec165" fill-rule="evenodd"/></g><g><path clip-rule="evenodd" d="m492.551 288.663v-65.327c0-10.776-8.79-19.566-19.536-19.566h-22.544c-5.023-19.654-12.79-38.197-22.894-55.223l15.944-15.945c7.622-7.622 7.622-20.062 0-27.655l-46.198-46.199c-7.593-7.622-20.062-7.622-27.654 0l-15.944 15.945c-5.986-3.534-12.119-6.804-18.456-9.754 23.887 36.212 39.948 80.483 45.03 128.931 8.761 18.894 13.667 39.92 13.667 62.114 0 9.871-.964 19.478-2.803 28.794 18.251 38.84 55.367 31.627 87.752 22.515 7.884-2.51 13.636-9.927 13.636-18.63z" fill="#2b4d66" fill-rule="evenodd"/></g><g><path clip-rule="evenodd" d="m393.965 255.985c0-22.194-4.906-43.22-13.667-62.114-18.251-39.307-53.265-69.24-95.87-80.6 42.752 35.306 69.997 88.689 69.997 148.467 0 15.127-1.752 29.875-5.052 43.98 17.58 22.282 35.597.584 41.788-20.938 1.841-9.316 2.804-18.924 2.804-28.795z" fill="#fdb441" fill-rule="evenodd"/></g><g><path clip-rule="evenodd" d="m329.837 230.637c0-27.684-14.075-52.244-35.451-66.816-22.427-15.332-18.105 8.878-18.105 12.937v48.564c0 16.996-13.316 31.013-30.02 32.152-16.704-1.139-30.02-15.156-30.02-32.152v-48.564c0-4.059 4.351-28.268-18.076-12.937-21.376 14.572-35.451 39.132-35.451 66.816 0 34.664 22.106 64.421 52.943 75.84v94.033c9.87 2.103 20.12 3.183 30.604 3.183 10.513 0 20.763-1.081 30.633-3.183v-94.033c30.837-11.418 52.943-41.176 52.943-75.84z" fill="#eff6ff" fill-rule="evenodd"/></g><g><path clip-rule="evenodd" d="m276.894 400.51v-94.033c30.837-11.418 52.943-41.176 52.943-75.84 0-27.684-14.075-52.244-35.451-66.816-16.587-11.331-18.543-1.022-18.427 6.746 43.423 41.526 28.939 108.751-27.888 129.836v100.107 3.183c9.871-.116 19.508-1.226 28.823-3.183z" fill="#d9eeff" fill-rule="evenodd"/></g><g><path clip-rule="evenodd" d="m478.914 307.295c-17.463-15.536-40.474-24.998-65.675-24.998-7.593 0-14.981.847-22.077 2.482-43.92 10.017-76.685 49.324-76.685 96.282 0 1.986.058 3.942.175 5.87 1.314 22.34 10.046 42.695 23.8 58.61 18.105 20.997 44.884 34.284 74.787 34.284 54.549 0 98.761-44.213 98.761-98.764 0-29.319-12.79-55.66-33.086-73.766z" fill="#eff6ff" fill-rule="evenodd"/></g><g><path clip-rule="evenodd" d="m413.239 479.825c54.549 0 98.761-44.213 98.761-98.764 0-29.32-12.79-55.661-33.086-73.766-17.463-15.536-40.474-24.998-65.675-24.998-1.811 0-3.621.058-5.432.146 15.974 3.884 30.399 11.652 42.285 22.223 2.716 2.424 5.344 5.023 7.797 7.768 2.482 2.745 4.818 5.665 6.979 8.702 11.506 16.149 18.28 35.92 18.28 57.267 0 52.74-41.292 95.815-93.33 98.618 7.505 1.811 15.361 2.804 23.421 2.804z" fill="#d9eeff" fill-rule="evenodd"/></g><g><path clip-rule="evenodd" d="m460.312 339.652c-7.943-6.629-19.799-5.578-26.428 2.336l-31.889 38.022-10.367-8.79c-7.855-6.658-19.741-5.695-26.428 2.19-6.658 7.885-5.694 19.741 2.19 26.429l24.734 20.997c3.971 3.358 8.556 4.818 13.725 4.38s9.461-2.657 12.791-6.658l43.978-52.478c6.659-7.943 5.608-19.799-2.306-26.428z" fill="#3bc3a4" fill-rule="evenodd"/></g><g><path clip-rule="evenodd" d="m418.641 418.558 43.978-52.478c6.658-7.943 5.607-19.8-2.307-26.429-2.687-2.249-5.811-3.621-9.023-4.118 2.716 6.279 1.869 13.871-2.833 19.478l-43.978 52.507c-3.358 3.972-7.622 6.191-12.791 6.629-3.3.292-6.366-.204-9.169-1.46l9.607 8.148c3.971 3.358 8.556 4.818 13.725 4.38 5.169-.437 9.462-2.656 12.791-6.657z" fill="#00a887" fill-rule="evenodd"/></g></g></svg>