<svg enable-background="new 0 0 512 512" height="512" viewBox="0 0 512 512" width="512" xmlns="http://www.w3.org/2000/svg" xmlns:xlink="http://www.w3.org/1999/xlink"><linearGradient id="SVGID_1_" gradientUnits="userSpaceOnUse" x1="95.063" x2="484.153" y1="473.426" y2="84.336"><stop offset="0" stop-color="#02afd0"/><stop offset="1" stop-color="#6956a3"/></linearGradient><g id="Backup" display="none"><g display="inline"><g><path d="m263.004 272.32c4.35-4.797 7.021-11.142 7.021-18.124 0-14.925-12.1-27.024-27.022-27.024s-27.022 12.099-27.022 27.024c0 6.982 2.671 13.327 7.018 18.124h-71.386v-71.39c-4.797 4.347-11.143 7.021-18.126 7.021-14.923 0-27.023-12.101-27.023-27.023 0-14.925 12.101-27.022 27.023-27.022 6.983 0 13.329 2.67 18.126 7.02v-47.416c-67.041 0-121.393 54.352-121.393 121.396 0 37.606 17.104 71.211 43.953 93.475 7.246 6.009 13.8 9.75 13.8 9.75 5.457 3.109 9.923 10.796 9.923 17.076v23.084c0 6.281 5.138 11.419 11.419 11.419h84.598c6.281 0 11.422-5.138 11.422-11.419v-23.084c0-6.279 4.46-13.965 9.919-17.076 0 0 6.557-3.737 13.8-9.744 17.521-14.532 30.853-33.914 38.03-56.067z" fill="#ffd15b"/><path d="m92.007 459.383c0 7.665 6.965 13.935 15.479 13.935h9.444 69.368 9.44c8.518 0 15.484-6.271 15.484-13.935 0-7.663-6.966-13.934-15.484-13.934h-88.252c-8.514 0-15.479 6.271-15.479 13.934z" fill="#935b50"/><path d="m151.612 508c19.156 0 34.686-15.527 34.686-34.682h-69.368c0 19.155 15.527 34.682 34.682 34.682z" fill="#3a313a"/><path d="m107.486 389.71c-8.515 0-15.479 6.272-15.479 13.935s6.965 13.934 15.479 13.934h88.252c8.518 0 15.484-6.271 15.484-13.934s-6.966-13.935-15.484-13.935h-1.826-84.598z" fill="#935b50"/><path d="m92.007 431.514c0 7.663 6.965 13.936 15.479 13.936h88.252c8.518 0 15.484-6.272 15.484-13.936 0-7.663-6.966-13.935-15.484-13.935h-88.252c-8.514 0-15.479 6.272-15.479 13.935z" fill="#935b50"/><g style="fill:none;stroke:#000;stroke-width:8;stroke-linecap:round;stroke-linejoin:round;stroke-miterlimit:10"><path d="m109.314 389.71h84.6"/><path d="m107.486 417.579h88.252"/><path d="m107.486 445.449h88.252"/><path d="m116.93 473.318h69.368"/><path d="m263.004 272.32c4.35-4.797 7.021-11.142 7.021-18.124 0-14.925-12.1-27.024-27.022-27.024s-27.022 12.099-27.022 27.024c0 6.982 2.671 13.327 7.018 18.124h-71.386v-71.39c-4.797 4.347-11.143 7.021-18.126 7.021-14.923 0-27.023-12.101-27.023-27.023 0-14.925 12.101-27.022 27.023-27.022 6.983 0 13.329 2.67 18.126 7.02v-47.416c-67.042 0-121.393 54.352-121.393 121.396 0 37.606 17.104 71.211 43.953 93.475 7.246 6.009 13.8 9.75 13.8 9.75 5.457 3.109 9.923 10.796 9.923 17.076v23.084c0 6.281 5.138 11.419 11.419 11.419h-1.828c-8.515 0-15.479 6.272-15.479 13.935s6.965 13.934 15.479 13.934c-8.515 0-15.479 6.272-15.479 13.935s6.965 13.936 15.479 13.936c-8.515 0-15.479 6.271-15.479 13.934 0 7.665 6.965 13.935 15.479 13.935h9.444c0 19.155 15.527 34.682 34.684 34.682s34.684-15.527 34.684-34.682h9.44c8.518 0 15.484-6.271 15.484-13.935 0-7.663-6.966-13.934-15.484-13.934 8.518 0 15.484-6.272 15.484-13.936 0-7.663-6.966-13.935-15.484-13.935 8.518 0 15.484-6.271 15.484-13.934s-6.966-13.935-15.484-13.935h-1.824c6.281 0 11.42-5.138 11.42-11.419v-23.084c0-6.279 4.46-13.965 9.919-17.076 0 0 6.557-3.737 13.8-9.744 17.521-14.532 30.853-33.914 38.03-56.067z"/></g></g><g stroke="#000" stroke-linecap="round" stroke-linejoin="round" stroke-miterlimit="10" stroke-width="8"><path d="m319.554 36.057c1.561-6.808 5.583-12.396 10.891-16.098l-69.579-15.959-15.959 69.583c-3.704-5.312-9.291-9.334-16.098-10.894-14.544-3.336-29.043 5.75-32.381 20.298-3.335 14.544 5.754 29.042 20.299 32.379 6.807 1.563 13.589.375 19.237-2.792l-15.96 69.583 69.579 15.959c-3.164-5.646-4.348-12.428-2.789-19.235 3.336-14.545 17.834-23.634 32.38-20.298 14.545 3.335 23.634 17.834 20.297 32.379-1.561 6.806-5.582 12.394-10.895 16.096l69.583 15.96 15.96-69.584c3.703 5.31 9.29 9.336 16.099 10.897 14.544 3.334 29.042-5.754 32.379-20.298 3.336-14.547-5.753-29.044-20.298-32.381-6.807-1.561-13.588-.376-19.236 2.79l15.958-69.581-69.583-15.96c3.168 5.648 4.354 12.428 2.792 19.236-3.336 14.547-17.834 23.632-32.38 20.298-14.544-3.335-23.632-17.832-20.296-32.378z" fill="#6fd7a3"/><path d="m449.333 401.188 32.447-20.674c-1.746-12.856-5.759-24.985-11.657-35.962l-38.431 2.348c-7.387-8.552-16.689-15.399-27.26-19.838l-9.626-37.21c-6.139-1.096-12.449-1.701-18.903-1.701s-12.767.605-18.905 1.701l-9.624 37.21c-10.571 4.439-19.875 11.286-27.26 19.838l-38.431-2.348c-5.898 10.977-9.911 23.105-11.657 35.962l32.447 20.674c.966 11.67 4.628 22.575 10.395 32.067l-14.081 35.75c8.743 9.111 19.066 16.696 30.557 22.264l29.708-24.486c5.414 1.268 11.05 1.958 16.852 1.958 5.801 0 11.438-.69 16.852-1.958l29.708 24.486c11.49-5.572 21.812-13.153 30.553-22.268l-14.077-35.747c5.764-9.491 9.426-20.396 10.393-32.066zm-73.43 27.357c-18.506 0-33.51-15.003-33.51-33.508 0-18.506 15.003-33.508 33.51-33.508 18.508 0 33.508 15.002 33.508 33.508 0 18.505-15 33.508-33.508 33.508z" fill="#3a313a"/></g></g></g><g id="Main" display="none"><g display="inline"><g><path d="m263.004 272.32c4.35-4.797 7.021-11.142 7.021-18.124 0-14.925-12.1-27.024-27.022-27.024s-27.022 12.099-27.022 27.024c0 6.982 2.671 13.327 7.018 18.124h-71.386v-71.39c-4.797 4.347-11.143 7.021-18.126 7.021-14.923 0-27.023-12.101-27.023-27.023 0-14.925 12.101-27.022 27.023-27.022 6.983 0 13.329 2.67 18.126 7.02v-47.416c-67.041 0-121.393 54.352-121.393 121.396 0 37.606 17.104 71.211 43.953 93.475 7.246 6.009 13.8 9.75 13.8 9.75 5.457 3.109 9.923 10.796 9.923 17.076v23.084c0 6.281 5.138 11.419 11.419 11.419h84.598c6.281 0 11.422-5.138 11.422-11.419v-23.084c0-6.279 4.46-13.965 9.919-17.076 0 0 6.557-3.737 13.8-9.744 17.521-14.532 30.853-33.914 38.03-56.067z" fill="#ffd15b"/><path d="m92.007 459.383c0 7.665 6.965 13.935 15.479 13.935h9.444 69.368 9.44c8.518 0 15.484-6.271 15.484-13.935 0-7.663-6.966-13.934-15.484-13.934h-88.252c-8.514 0-15.479 6.271-15.479 13.934z" fill="#935b50"/><path d="m151.612 508c19.156 0 34.686-15.527 34.686-34.682h-69.368c0 19.155 15.527 34.682 34.682 34.682z" fill="#3a313a"/><path d="m107.486 389.71c-8.515 0-15.479 6.272-15.479 13.935s6.965 13.934 15.479 13.934h88.252c8.518 0 15.484-6.271 15.484-13.934s-6.966-13.935-15.484-13.935h-1.826-84.598z" fill="#935b50"/><path d="m92.007 431.514c0 7.663 6.965 13.936 15.479 13.936h88.252c8.518 0 15.484-6.272 15.484-13.936 0-7.663-6.966-13.935-15.484-13.935h-88.252c-8.514 0-15.479 6.272-15.479 13.935z" fill="#935b50"/><g style="fill:none;stroke:#000;stroke-width:8;stroke-linecap:round;stroke-linejoin:round;stroke-miterlimit:10"><path d="m109.314 389.71h84.6"/><path d="m107.486 417.579h88.252"/><path d="m107.486 445.449h88.252"/><path d="m116.93 473.318h69.368"/><path d="m263.004 272.32c4.35-4.797 7.021-11.142 7.021-18.124 0-14.925-12.1-27.024-27.022-27.024s-27.022 12.099-27.022 27.024c0 6.982 2.671 13.327 7.018 18.124h-71.386v-71.39c-4.797 4.347-11.143 7.021-18.126 7.021-14.923 0-27.023-12.101-27.023-27.023 0-14.925 12.101-27.022 27.023-27.022 6.983 0 13.329 2.67 18.126 7.02v-47.416c-67.042 0-121.393 54.352-121.393 121.396 0 37.606 17.104 71.211 43.953 93.475 7.246 6.009 13.8 9.75 13.8 9.75 5.457 3.109 9.923 10.796 9.923 17.076v23.084c0 6.281 5.138 11.419 11.419 11.419h-1.828c-8.515 0-15.479 6.272-15.479 13.935s6.965 13.934 15.479 13.934c-8.515 0-15.479 6.272-15.479 13.935s6.965 13.936 15.479 13.936c-8.515 0-15.479 6.271-15.479 13.934 0 7.665 6.965 13.935 15.479 13.935h9.444c0 19.155 15.527 34.682 34.684 34.682s34.684-15.527 34.684-34.682h9.44c8.518 0 15.484-6.271 15.484-13.935 0-7.663-6.966-13.934-15.484-13.934 8.518 0 15.484-6.272 15.484-13.936 0-7.663-6.966-13.935-15.484-13.935 8.518 0 15.484-6.271 15.484-13.934s-6.966-13.935-15.484-13.935h-1.824c6.281 0 11.42-5.138 11.42-11.419v-23.084c0-6.279 4.46-13.965 9.919-17.076 0 0 6.557-3.737 13.8-9.744 17.521-14.532 30.853-33.914 38.03-56.067z"/></g></g><g stroke="#000" stroke-linecap="round" stroke-linejoin="round" stroke-miterlimit="10" stroke-width="8"><path d="m319.554 36.057c1.561-6.808 5.583-12.396 10.891-16.098l-69.579-15.959-15.959 69.583c-3.704-5.312-9.291-9.334-16.098-10.894-14.544-3.336-29.043 5.75-32.381 20.298-3.335 14.544 5.754 29.042 20.299 32.379 6.807 1.563 13.589.375 19.237-2.792l-15.96 69.583 69.579 15.959c-3.164-5.646-4.348-12.428-2.789-19.235 3.336-14.545 17.834-23.634 32.38-20.298 14.545 3.335 23.634 17.834 20.297 32.379-1.561 6.806-5.582 12.394-10.895 16.096l69.583 15.96 15.96-69.584c3.703 5.31 9.29 9.336 16.099 10.897 14.544 3.334 29.042-5.754 32.379-20.298 3.336-14.547-5.753-29.044-20.298-32.381-6.807-1.561-13.588-.376-19.236 2.79l15.958-69.581-69.583-15.96c3.168 5.648 4.354 12.428 2.792 19.236-3.336 14.547-17.834 23.632-32.38 20.298-14.544-3.335-23.632-17.832-20.296-32.378z" fill="#6fd7a3"/><path d="m449.333 401.188 32.447-20.674c-1.746-12.856-5.759-24.985-11.657-35.962l-38.431 2.348c-7.387-8.552-16.689-15.399-27.26-19.838l-9.626-37.21c-6.139-1.096-12.449-1.701-18.903-1.701s-12.767.605-18.905 1.701l-9.624 37.21c-10.571 4.439-19.875 11.286-27.26 19.838l-38.431-2.348c-5.898 10.977-9.911 23.105-11.657 35.962l32.447 20.674c.966 11.67 4.628 22.575 10.395 32.067l-14.081 35.75c8.743 9.111 19.066 16.696 30.557 22.264l29.708-24.486c5.414 1.268 11.05 1.958 16.852 1.958 5.801 0 11.438-.69 16.852-1.958l29.708 24.486c11.49-5.572 21.812-13.153 30.553-22.268l-14.077-35.747c5.764-9.491 9.426-20.396 10.393-32.066zm-73.43 27.357c-18.506 0-33.51-15.003-33.51-33.508 0-18.506 15.003-33.508 33.51-33.508 18.508 0 33.508 15.002 33.508 33.508 0 18.505-15 33.508-33.508 33.508z" fill="#3a313a"/></g></g></g><g id="Shadow" display="none"><g display="inline"><g><path d="m263.004 272.32c4.35-4.797 7.021-11.142 7.021-18.124 0-14.925-12.1-27.024-27.022-27.024s-27.022 12.099-27.022 27.024c0 6.982 2.671 13.327 7.018 18.124h-71.386v-71.39c-4.797 4.347-11.143 7.021-18.126 7.021-14.923 0-27.023-12.101-27.023-27.023 0-14.925 12.101-27.022 27.023-27.022 6.983 0 13.329 2.67 18.126 7.02v-47.416c-67.041 0-121.393 54.352-121.393 121.396 0 37.606 17.104 71.211 43.953 93.475 7.246 6.009 13.8 9.75 13.8 9.75 5.457 3.109 9.923 10.796 9.923 17.076v23.084c0 6.281 5.138 11.419 11.419 11.419h84.598c6.281 0 11.422-5.138 11.422-11.419v-23.084c0-6.279 4.46-13.965 9.919-17.076 0 0 6.557-3.737 13.8-9.744 17.521-14.532 30.853-33.914 38.03-56.067z" fill="#ffd15b"/><path d="m92.007 459.383c0 7.665 6.965 13.935 15.479 13.935h9.444 69.368 9.44c8.518 0 15.484-6.271 15.484-13.935 0-7.663-6.966-13.934-15.484-13.934h-88.252c-8.514 0-15.479 6.271-15.479 13.934z" fill="#935b50"/><path d="m151.612 508c19.156 0 34.686-15.527 34.686-34.682h-69.368c0 19.155 15.527 34.682 34.682 34.682z" fill="#3a313a"/><g fill="#935b50"><path d="m107.486 389.71c-8.515 0-15.479 6.272-15.479 13.935s6.965 13.934 15.479 13.934h88.252c8.518 0 15.484-6.271 15.484-13.934s-6.966-13.935-15.484-13.935h-1.826-84.598z"/><path d="m92.007 431.514c0 7.663 6.965 13.936 15.479 13.936h88.252c8.518 0 15.484-6.272 15.484-13.936 0-7.663-6.966-13.935-15.484-13.935h-88.252c-8.514 0-15.479 6.272-15.479 13.935z"/></g></g><path d="m319.554 36.057c1.561-6.808 5.583-12.396 10.891-16.098l-69.579-15.959-15.959 69.583c-3.704-5.312-9.291-9.334-16.098-10.894-14.544-3.336-29.043 5.75-32.381 20.298-3.335 14.544 5.754 29.042 20.299 32.379 6.807 1.563 13.589.375 19.237-2.792l-15.96 69.583 69.579 15.959c-3.164-5.646-4.348-12.428-2.789-19.235 3.336-14.545 17.834-23.634 32.38-20.298 14.545 3.335 23.634 17.834 20.297 32.379-1.561 6.806-5.582 12.394-10.895 16.096l69.583 15.96 15.96-69.584c3.703 5.31 9.29 9.336 16.099 10.897 14.544 3.334 29.042-5.754 32.379-20.298 3.336-14.547-5.753-29.044-20.298-32.381-6.807-1.561-13.588-.376-19.236 2.79l15.958-69.581-69.583-15.96c3.168 5.648 4.354 12.428 2.792 19.236-3.336 14.547-17.834 23.632-32.38 20.298-14.544-3.335-23.632-17.832-20.296-32.378z" fill="#6fd7a3"/><path d="m449.333 401.188 32.447-20.674c-1.746-12.856-5.759-24.985-11.657-35.962l-38.431 2.348c-7.387-8.552-16.689-15.399-27.26-19.838l-9.626-37.21c-6.139-1.096-12.449-1.701-18.903-1.701s-12.767.605-18.905 1.701l-9.624 37.21c-10.571 4.439-19.875 11.286-27.26 19.838l-38.431-2.348c-5.898 10.977-9.911 23.105-11.657 35.962l32.447 20.674c.966 11.67 4.628 22.575 10.395 32.067l-14.081 35.75c8.743 9.111 19.066 16.696 30.557 22.264l29.708-24.486c5.414 1.268 11.05 1.958 16.852 1.958 5.801 0 11.438-.69 16.852-1.958l29.708 24.486c11.49-5.572 21.812-13.153 30.553-22.268l-14.077-35.747c5.764-9.491 9.426-20.396 10.393-32.066zm-73.43 27.357c-18.506 0-33.51-15.003-33.51-33.508 0-18.506 15.003-33.508 33.51-33.508 18.508 0 33.508 15.002 33.508 33.508 0 18.505-15 33.508-33.508 33.508z" fill="#3a313a"/></g></g><g id="Base" display="none"><g display="inline"><path d="m114.314 375.71c-1.334 0-2.419-1.085-2.419-2.419v-23.084c0-9.494-6.218-20.195-14.463-24.893-.047-.027-6.053-3.502-12.514-8.86-25.864-21.447-40.698-52.992-40.698-86.547 0-29.305 11.26-57.063 31.705-78.164 19.188-19.803 44.48-31.715 71.688-33.876v23.225c-2.975-.782-6.049-1.185-9.126-1.185-19.863 0-36.023 16.16-36.023 36.022 0 19.863 16.16 36.023 36.023 36.023 3.076 0 6.15-.403 9.126-1.186v56.554c0 4.962 4.038 9 9 9h71.386c3.557 0 6.787-2.101 8.228-5.353 1.441-3.251.83-7.054-1.558-9.69-3.023-3.336-4.688-7.627-4.688-12.081 0-9.938 8.085-18.024 18.022-18.024s18.022 8.085 18.022 18.024c0 4.455-1.665 8.744-4.688 12.078-2.39 2.636-3.002 6.44-1.562 9.692.236.533.52 1.037.846 1.506-6.973 17.04-18.094 32.194-32.313 43.987-6.45 5.349-12.463 8.826-12.523 8.86-8.233 4.691-14.451 15.394-14.451 24.888v23.084c0 1.334-1.086 2.419-2.42 2.419z" fill="#fee45a"/><path d="m112.486 459.318c-3.512 0-6.479-2.26-6.479-4.935 0-2.674 2.967-4.934 6.479-4.934h88.252c3.515 0 6.484 2.259 6.484 4.934s-2.969 4.935-6.484 4.935z" fill="#ab695d"/><path d="m156.614 494c-10.863 0-20.366-6.865-24.049-16.682h48.098c-3.683 9.817-13.186 16.682-24.049 16.682z" fill="#685e68"/><path d="m112.486 403.579c-3.512 0-6.479-2.259-6.479-4.934s2.967-4.935 6.479-4.935h88.252c3.515 0 6.484 2.26 6.484 4.935 0 2.674-2.969 4.934-6.484 4.934z" fill="#ab695d"/><path d="m112.486 431.449c-3.512 0-6.479-2.26-6.479-4.936s2.967-4.935 6.479-4.935h88.252c3.515 0 6.484 2.26 6.484 4.935s-2.969 4.936-6.484 4.936z" fill="#ab695d"/><path d="m350.051 196.603c1.427-2.724 2.506-5.63 3.194-8.629 2.151-9.377.521-19.032-4.59-27.186-5.11-8.153-13.09-13.827-22.468-15.978-2.655-.608-5.372-.917-8.076-.917-16.882 0-31.311 11.504-35.089 27.976-.687 2.999-.981 6.084-.884 9.158l-46.35-10.631 13.948-60.811c.795-3.467-.531-7.085-3.378-9.216-1.548-1.158-3.463-1.795-5.395-1.795-1.536 0-3.057.396-4.398 1.147-2.706 1.517-5.771 2.318-8.865 2.318-1.337 0-2.669-.15-3.96-.447-4.684-1.074-8.673-3.916-11.234-8s-3.38-8.912-2.306-13.594c1.891-8.243 9.105-14 17.543-14 1.352 0 2.716.156 4.055.462 4.342.995 8.15 3.576 10.725 7.269 1.684 2.413 4.443 3.853 7.382 3.853.576 0 1.155-.056 1.721-.166 3.486-.676 6.257-3.354 7.053-6.822l13.947-60.811 46.35 10.631c-1.427 2.725-2.506 5.631-3.194 8.63-4.44 19.359 7.698 38.722 27.058 43.163 2.655.608 5.372.917 8.075.917 16.882 0 31.311-11.504 35.089-27.976.688-2.999.982-6.084.885-9.159l46.349 10.631-13.946 60.809c-.795 3.468.532 7.085 3.38 9.217 1.546 1.157 3.461 1.795 5.394 1.795 1.538 0 3.059-.397 4.4-1.149 2.701-1.514 5.766-2.315 8.862-2.315 1.337 0 2.669.15 3.96.446 9.687 2.222 15.76 11.91 13.538 21.597-1.891 8.242-9.105 13.999-17.545 13.999-1.352 0-2.714-.155-4.05-.461-4.341-.996-8.151-3.579-10.728-7.273-1.681-2.411-4.441-3.852-7.383-3.852-.572 0-1.147.055-1.71.164-3.496.679-6.266 3.357-7.062 6.823l-13.948 60.815z" fill="#9be69d"/><path d="m333.214 475.536c-6.796-3.801-13.124-8.415-18.875-13.765l11.902-30.218c1.025-2.603.77-5.583-.683-7.972-5.214-8.583-8.281-18.05-9.116-28.136-.23-2.785-1.775-5.345-4.132-6.847l-27.438-17.483c1.5-7.692 3.913-15.141 7.196-22.218l32.498 1.986c.19.011.366.016.541.016 2.623 0 5.108-1.136 6.819-3.116 6.536-7.568 14.813-13.593 23.934-17.423 2.576-1.082 4.53-3.342 5.229-6.046l8.134-31.448c3.923-.476 7.84-.716 11.682-.716 3.841 0 7.757.24 11.681.716l8.136 31.45c.7 2.704 2.655 4.963 5.229 6.044 9.12 3.83 17.396 9.854 23.933 17.423 1.712 1.981 4.197 3.116 6.819 3.116.175 0 .351-.005.527-.015l32.512-1.987c3.283 7.077 5.695 14.525 7.196 22.218l-27.438 17.482c-2.356 1.502-3.901 4.061-4.133 6.846-.836 10.087-3.904 19.555-9.118 28.14-1.451 2.389-1.706 5.368-.681 7.969l11.899 30.216c-5.748 5.347-12.075 9.962-18.874 13.766l-25.111-20.697c-1.608-1.325-3.641-2.055-5.723-2.055-.691 0-1.382.08-2.055.238-4.851 1.135-9.83 1.711-14.798 1.711s-9.947-.576-14.8-1.712c-.672-.158-1.362-.237-2.051-.237-2.084 0-4.117.73-5.724 2.055zm47.689-128.007c-23.44 0-42.51 19.069-42.51 42.508s19.07 42.508 42.51 42.508c23.439 0 42.508-19.069 42.508-42.508s-19.069-42.508-42.508-42.508z" fill="#685e68"/></g></g><g id="Flat"><g><g><g><path d="m263.115 272.579c4.419-4.873 7.133-11.319 7.133-18.412 0-15.162-12.292-27.453-27.451-27.453-15.16 0-27.452 12.291-27.452 27.453 0 7.093 2.714 13.539 7.129 18.412h-72.519v-72.523c-4.874 4.416-11.32 7.133-18.414 7.133-15.16 0-27.452-12.292-27.452-27.452 0-15.163 12.292-27.452 27.452-27.452 7.094 0 13.541 2.713 18.414 7.131v-48.168c-68.105 0-123.32 55.215-123.32 123.323 0 38.203 17.375 72.341 44.65 94.959 7.361 6.104 14.019 9.904 14.019 9.904 5.543 3.158 10.08 10.968 10.08 17.347v23.451c0 6.381 5.22 11.601 11.601 11.601h85.941c6.38 0 11.604-5.22 11.604-11.601v-23.451c0-6.379 4.531-14.187 10.077-17.347 0 0 6.661-3.797 14.019-9.899 17.8-14.762 31.343-34.452 38.633-56.957h-4.144z" fill="#ffd15b"/><path d="m89.404 462.611c0 7.786 7.075 14.156 15.725 14.156h9.594 70.469 9.59c8.653 0 15.729-6.37 15.729-14.156 0-7.785-7.077-14.155-15.729-14.155h-89.653c-8.65.001-15.725 6.37-15.725 14.155z" fill="#935b50"/><path d="m149.956 512c19.46 0 35.236-15.774 35.236-35.232h-70.469c0 19.458 15.773 35.232 35.233 35.232z" fill="#3a313a"/><g fill="#935b50"><path d="m105.129 391.833c-8.65 0-15.725 6.372-15.725 14.156s7.075 14.155 15.725 14.155h89.653c8.653 0 15.729-6.37 15.729-14.155s-7.077-14.156-15.729-14.156h-1.855-85.941z"/><path d="m89.404 434.3c0 7.785 7.075 14.157 15.725 14.157h89.653c8.653 0 15.729-6.372 15.729-14.157 0-7.784-7.077-14.156-15.729-14.156h-89.653c-8.65 0-15.725 6.372-15.725 14.156z"/></g></g><path d="m320.563 32.565c1.585-6.916 5.671-12.592 11.064-16.353l-70.684-16.212-16.213 70.687c-3.762-5.396-9.438-9.482-16.353-11.066-14.775-3.39-29.504 5.842-32.895 20.62-3.388 14.774 5.846 29.503 20.622 32.893 6.915 1.587 13.805.38 19.542-2.835l-16.213 70.687 70.684 16.212c-3.214-5.736-4.417-12.625-2.833-19.54 3.39-14.776 18.118-24.009 32.895-20.62 14.776 3.388 24.009 18.117 20.62 32.894-1.585 6.914-5.671 12.59-11.068 16.352l70.687 16.214 16.213-70.689c3.762 5.394 9.438 9.484 16.354 11.07 14.774 3.387 29.503-5.845 32.893-20.62 3.39-14.778-5.844-29.505-20.62-32.895-6.915-1.586-13.804-.383-19.542 2.834l16.211-70.686-70.687-16.215c3.219 5.738 4.422 12.626 2.836 19.542-3.389 14.778-18.117 24.007-32.894 20.62-14.776-3.39-24.008-18.117-20.619-32.894z" fill="#6fd7a3"/><path d="m452.402 403.493 32.962-21.002c-1.774-13.061-5.851-25.382-11.842-36.533l-39.042 2.385c-7.504-8.688-16.954-15.644-27.692-20.153l-9.779-37.801c-6.236-1.113-12.646-1.728-19.203-1.728s-12.969.615-19.206 1.728l-9.777 37.801c-10.739 4.509-20.19 11.465-27.693 20.153l-39.041-2.385c-5.992 11.151-10.068 23.472-11.842 36.533l32.962 21.002c.981 11.855 4.702 22.933 10.56 32.576l-14.305 36.318c8.882 9.256 19.369 16.961 31.042 22.618l30.18-24.875c5.5 1.288 11.225 1.989 17.12 1.989 5.893 0 11.62-.702 17.12-1.989l30.18 24.875c11.673-5.66 22.158-13.362 31.039-22.621l-14.301-36.314c5.855-9.644 9.575-20.722 10.558-32.577zm-74.596 27.791c-18.8 0-34.042-15.242-34.042-34.04 0-18.8 15.241-34.04 34.042-34.04 18.802 0 34.04 15.24 34.04 34.04 0 18.798-15.238 34.04-34.04 34.04z" fill="#3a313a"/></g><path d="m112.065 377.61c-1.355 0-2.458-1.103-2.458-2.458v-23.451c0-9.645-6.316-20.516-14.693-25.289-.048-.028-6.149-3.558-12.713-9-26.274-21.787-41.344-53.833-41.344-87.921 0-29.77 11.438-57.969 32.208-79.404 19.493-20.117 45.187-32.218 72.826-34.414v23.593c-3.022-.795-6.146-1.204-9.271-1.204-20.179 0-36.595 16.416-36.595 36.594 0 20.179 16.417 36.595 36.595 36.595 3.125 0 6.248-.409 9.271-1.204v57.453c0 5.041 4.102 9.143 9.143 9.143h72.519c3.613 0 6.894-2.135 8.358-5.438s.843-7.167-1.582-9.844c-3.071-3.39-4.762-7.748-4.762-12.273 0-10.096 8.213-18.31 18.309-18.31s18.309 8.214 18.309 18.31c0 4.525-1.691 8.882-4.763 12.269-2.428 2.678-3.05 6.542-1.586 9.847.24.542.528 1.053.859 1.529-7.083 17.311-18.381 32.705-32.826 44.685-6.553 5.434-12.661 8.966-12.722 9-8.364 4.766-14.68 15.639-14.68 25.283v23.451c0 1.355-1.103 2.458-2.459 2.458z" fill="#fee45a"/><path d="m110.208 462.545c-3.568 0-6.583-2.295-6.583-5.013 0-2.717 3.014-5.012 6.583-5.012h89.653c3.57 0 6.586 2.295 6.586 5.012 0 2.718-3.016 5.013-6.586 5.013z" fill="#ab695d"/><path d="m155.036 497.778c-11.035 0-20.689-6.974-24.431-16.947h48.861c-3.74 9.973-13.394 16.947-24.43 16.947z" fill="#685e68"/><path d="m110.208 405.921c-3.568 0-6.583-2.295-6.583-5.012 0-2.718 3.014-5.013 6.583-5.013h89.653c3.57 0 6.586 2.295 6.586 5.013 0 2.717-3.016 5.012-6.586 5.012z" fill="#ab695d"/><path d="m110.208 434.234c-3.568 0-6.583-2.296-6.583-5.014s3.014-5.013 6.583-5.013h89.653c3.57 0 6.586 2.295 6.586 5.013s-3.016 5.014-6.586 5.014z" fill="#ab695d"/><path d="m351.543 195.66c1.45-2.767 2.546-5.72 3.245-8.766 2.185-9.526.529-19.334-4.663-27.617-5.191-8.282-13.298-14.047-22.825-16.232-2.698-.618-5.458-.931-8.204-.931-17.15 0-31.808 11.687-35.646 28.42-.698 3.046-.997 6.181-.898 9.303l-47.085-10.8 14.169-61.776c.808-3.522-.54-7.197-3.432-9.362-1.573-1.177-3.519-1.824-5.48-1.824-1.561 0-3.105.403-4.468 1.166-2.749 1.541-5.862 2.355-9.006 2.355-1.358 0-2.711-.153-4.023-.454-4.758-1.091-8.811-3.978-11.413-8.128-2.601-4.149-3.434-9.053-2.342-13.81 1.921-8.374 9.25-14.223 17.822-14.223 1.374 0 2.759.159 4.119.47 4.411 1.011 8.28 3.633 10.896 7.384 1.71 2.451 4.513 3.914 7.499 3.914.585 0 1.173-.057 1.748-.168 3.542-.687 6.356-3.408 7.165-6.93l14.169-61.775 47.085 10.8c-1.449 2.768-2.546 5.721-3.245 8.767-4.511 19.666 7.82 39.337 27.487 43.848 2.697.618 5.457.932 8.203.932 17.15 0 31.808-11.687 35.646-28.419.699-3.046.998-6.181.899-9.304l47.084 10.8-14.168 61.774c-.808 3.523.541 7.198 3.434 9.363 1.57 1.176 3.517 1.823 5.479 1.823 1.562 0 3.107-.404 4.47-1.167 2.744-1.538 5.857-2.352 9.003-2.352 1.358 0 2.711.153 4.023.453 9.84 2.257 16.01 12.099 13.753 21.939-1.92 8.373-9.25 14.221-17.823 14.221-1.374 0-2.757-.158-4.115-.469-4.41-1.011-8.281-3.635-10.898-7.389-1.708-2.449-4.512-3.913-7.5-3.913-.582 0-1.166.056-1.737.167-3.552.69-6.365 3.411-7.173 6.932l-14.169 61.778z" fill="#9be69d"/><path d="m334.44 479.021c-6.904-3.861-13.332-8.549-19.175-13.984l12.091-30.697c1.042-2.645.782-5.672-.694-8.099-5.296-8.72-8.413-18.337-9.261-28.583-.234-2.829-1.804-5.43-4.198-6.956l-27.874-17.761c1.524-7.814 3.975-15.381 7.31-22.57l33.014 2.018c.193.011.372.016.549.016 2.665 0 5.189-1.154 6.927-3.166 6.64-7.688 15.048-13.809 24.314-17.7 2.617-1.099 4.602-3.395 5.312-6.142l8.264-31.948c3.985-.483 7.964-.727 11.867-.727 3.902 0 7.88.244 11.866.727l8.265 31.95c.711 2.747 2.697 5.042 5.312 6.14 9.265 3.891 17.672 10.011 24.313 17.7 1.739 2.012 4.264 3.166 6.927 3.166.178 0 .357-.005.535-.015l33.028-2.019c3.335 7.189 5.786 14.756 7.31 22.57l-27.874 17.76c-2.394 1.526-3.963 4.126-4.198 6.955-.85 10.248-3.966 19.865-9.263 28.587-1.474 2.426-1.732 5.453-.692 8.096l12.088 30.696c-5.839 5.432-12.266 10.121-19.173 13.985l-25.51-21.025c-1.634-1.346-3.698-2.088-5.814-2.088-.702 0-1.404.082-2.088.242-4.927 1.153-9.986 1.738-15.033 1.738-5.046 0-10.105-.585-15.035-1.739-.683-.16-1.384-.241-2.083-.241-2.117 0-4.182.742-5.815 2.087zm48.445-130.04c-23.812 0-43.185 19.372-43.185 43.183s19.373 43.183 43.185 43.183c23.811 0 43.183-19.372 43.183-43.183s-19.372-43.183-43.183-43.183z" fill="#685e68"/></g></g><g id="Line" style="display:none;fill:none;stroke:#000;stroke-width:8;stroke-linecap:round;stroke-linejoin:round;stroke-miterlimit:10"><path d="m109.314 389.71h84.6" display="inline"/><path d="m107.486 417.579h88.252" display="inline"/><path d="m107.486 445.449h88.252" display="inline"/><path d="m116.93 473.318h69.368" display="inline"/><path d="m263.004 272.32c4.35-4.797 7.021-11.142 7.021-18.124 0-14.925-12.1-27.024-27.022-27.024s-27.022 12.099-27.022 27.024c0 6.982 2.671 13.327 7.018 18.124h-71.386v-71.39c-4.797 4.347-11.143 7.021-18.126 7.021-14.923 0-27.023-12.101-27.023-27.023 0-14.925 12.101-27.022 27.023-27.022 6.983 0 13.329 2.67 18.126 7.02v-47.416c-67.042 0-121.393 54.352-121.393 121.396 0 37.606 17.104 71.211 43.953 93.475 7.246 6.009 13.8 9.75 13.8 9.75 5.457 3.109 9.923 10.796 9.923 17.076v23.084c0 6.281 5.138 11.419 11.419 11.419h-1.828c-8.515 0-15.479 6.272-15.479 13.935s6.965 13.934 15.479 13.934c-8.515 0-15.479 6.272-15.479 13.935s6.965 13.936 15.479 13.936c-8.515 0-15.479 6.271-15.479 13.934 0 7.665 6.965 13.935 15.479 13.935h9.444c0 19.155 15.527 34.682 34.684 34.682s34.684-15.527 34.684-34.682h9.44c8.518 0 15.484-6.271 15.484-13.935 0-7.663-6.966-13.934-15.484-13.934 8.518 0 15.484-6.272 15.484-13.936 0-7.663-6.966-13.935-15.484-13.935 8.518 0 15.484-6.271 15.484-13.934s-6.966-13.935-15.484-13.935h-1.824c6.281 0 11.42-5.138 11.42-11.419v-23.084c0-6.279 4.46-13.965 9.919-17.076 0 0 6.557-3.737 13.8-9.744 17.521-14.532 30.853-33.914 38.03-56.067z" display="inline"/></g><g id="Blue" display="none"><g display="inline"><path d="m76.726 325.302c6.865 5.693 13.168 9.32 13.231 9.355 6.692 3.813 11.938 12.84 11.938 20.549v23.084c0 4.091 3.328 7.419 7.419 7.419h84.6c4.092 0 7.42-3.328 7.42-7.419v-23.084c0-7.709 5.244-16.736 11.939-20.551.061-.035 6.366-3.658 13.227-9.348 15.835-13.133 27.876-30.081 35.048-49.262-.965-.377-1.767-1.123-2.202-2.105-.641-1.447-.369-3.135.694-4.308 3.859-4.255 5.984-9.738 5.984-15.437 0-12.695-10.328-23.024-23.022-23.024s-23.022 10.329-23.022 23.024c0 5.698 2.125 11.18 5.982 15.438 1.062 1.172 1.333 2.86.692 4.307s-2.075 2.379-3.657 2.379h-71.386c-2.209 0-4-1.791-4-4v-63.791c-4.343 2.235-9.173 3.423-14.126 3.423-17.106 0-31.023-13.917-31.023-31.023s13.917-31.022 31.023-31.022c4.954 0 9.784 1.188 14.126 3.421v-35.75c-62.884 2.118-113.391 53.936-113.391 117.329 0 35.048 15.492 67.996 42.506 90.396z" fill="#f9f7f8"/><g fill="#9bc9ff"><path d="m195.738 449.449h-88.252c-6.33 0-11.479 4.456-11.479 9.934s5.15 9.935 11.479 9.935h9.444 69.368 9.44c6.332 0 11.484-4.457 11.484-9.935s-5.152-9.934-11.484-9.934z"/><path d="m121.199 477.318c1.968 15.034 14.852 26.682 30.415 26.682s28.447-11.648 30.415-26.682z"/><path d="m107.486 413.579h88.252c6.332 0 11.484-4.456 11.484-9.934s-5.152-9.935-11.484-9.935h-1.824-84.6-1.828c-6.33 0-11.479 4.457-11.479 9.935s5.15 9.934 11.479 9.934z"/><path d="m195.738 421.579h-88.252c-6.33 0-11.479 4.457-11.479 9.935 0 5.479 5.15 9.936 11.479 9.936h88.252c6.332 0 11.484-4.457 11.484-9.936 0-5.478-5.152-9.935-11.484-9.935z"/></g><path d="m338.958 72.335c-16.673-3.825-27.126-20.5-23.302-37.172 1.107-4.829 3.343-9.271 6.49-13.003l-58.276-13.367-15.064 65.684c-.354 1.542-1.583 2.731-3.137 3.033-1.552.303-3.138-.341-4.043-1.639-3.287-4.713-8.155-8.01-13.709-9.282-1.704-.391-3.444-.589-5.172-.589-10.783 0-20.002 7.354-22.417 17.882-2.838 12.372 4.921 24.748 17.294 27.585 5.536 1.271 11.41.409 16.387-2.382 1.381-.773 3.086-.661 4.354.287 1.267.948 1.855 2.554 1.501 4.096l-15.066 65.684 58.275 13.366c-1.206-4.73-1.283-9.703-.177-14.531 3.254-14.187 15.679-24.094 30.215-24.094 2.329 0 4.67.266 6.958.791 8.076 1.852 14.948 6.739 19.35 13.76s5.805 15.336 3.953 23.412c-1.107 4.829-3.344 9.271-6.492 13.002l58.276 13.367 15.065-65.686c.354-1.542 1.583-2.731 3.137-3.033 1.554-.3 3.139.341 4.043 1.639 3.289 4.715 8.158 8.013 13.712 9.287 1.702.39 3.44.588 5.167.588 10.785 0 20.003-7.353 22.418-17.881 2.838-12.374-4.92-24.749-17.293-27.587-5.534-1.27-11.411-.409-16.386 2.38-1.38.773-3.087.661-4.353-.287-1.267-.948-1.855-2.554-1.502-4.096l15.064-65.683-58.275-13.366c1.207 4.73 1.284 9.704.177 14.532-3.253 14.186-15.679 24.093-30.215 24.093-2.329 0-4.67-.266-6.957-.79z" fill="#f9f7f8"/><path d="m467.777 348.703-35.84 2.19c-1.25.073-2.456-.434-3.271-1.378-7.039-8.149-15.954-14.638-25.781-18.765-1.151-.483-2.011-1.477-2.324-2.686l-8.975-34.693c-5.256-.81-10.52-1.22-15.682-1.22-5.164 0-10.428.41-15.684 1.22l-8.973 34.693c-.313 1.209-1.172 2.203-2.324 2.687-9.83 4.127-18.745 10.616-25.782 18.764-.816.944-2.026 1.451-3.271 1.378l-35.84-2.19c-4.744 9.382-7.988 19.394-9.667 29.832l30.259 19.28c1.054.672 1.734 1.798 1.837 3.043.899 10.865 4.206 21.066 9.827 30.32.649 1.068.761 2.379.303 3.542l-13.129 33.333c7.519 7.467 16.026 13.668 25.346 18.475l27.702-22.832c.963-.793 2.241-1.092 3.456-.808 10.501 2.458 21.379 2.458 31.88 0 1.215-.285 2.493.014 3.456.808l27.7 22.832c9.325-4.812 17.832-11.013 25.343-18.477l-13.125-33.331c-.458-1.163-.346-2.474.303-3.542 5.62-9.254 8.926-19.456 9.827-30.321.104-1.246.783-2.371 1.837-3.043l30.259-19.28c-1.679-10.438-4.923-20.45-9.667-29.831zm-91.874 83.842c-20.683 0-37.51-16.826-37.51-37.508s16.827-37.508 37.51-37.508c20.682 0 37.508 16.826 37.508 37.508s-16.826 37.508-37.508 37.508z" fill="#9bc9ff"/></g></g><g id="Glyph" display="none"><path d="m97.431 177.973c0 17.686 14.389 32.075 32.075 32.075 5.121 0 10.115-1.228 14.605-3.539v65.954c0 2.284 1.852 4.136 4.136 4.136h73.807c1.636 0 3.118-.964 3.781-2.46.663-1.495.382-3.24-.716-4.453-3.988-4.402-6.185-10.07-6.185-15.961 0-13.125 10.678-23.805 23.803-23.805s23.803 10.679 23.803 23.805c0 5.892-2.198 11.561-6.188 15.96-1.099 1.212-1.38 2.958-.718 4.454.45 1.016 1.279 1.787 2.277 2.177-7.416 19.831-19.864 37.354-36.237 50.932-7.094 5.883-13.613 9.629-13.676 9.665-6.922 3.944-12.344 13.277-12.344 21.248v23.868c0 4.229-3.441 7.67-7.672 7.67h-87.469c-4.229 0-7.67-3.441-7.67-7.67v-23.868c0-7.97-5.424-17.303-12.343-21.246-.064-.037-6.582-3.787-13.68-9.673-27.929-23.159-43.947-57.225-43.947-93.461 0-65.542 52.22-119.118 117.238-121.307v36.962c-4.489-2.309-9.483-3.537-14.605-3.537-17.687-.001-32.075 14.388-32.075 32.074zm5.193 298.169h9.764 71.72 9.761c6.546 0 11.873-4.608 11.873-10.272 0-5.663-5.327-10.271-11.873-10.271h-91.245c-6.544 0-11.869 4.607-11.869 10.271s5.325 10.272 11.869 10.272zm45.624 35.858c16.091 0 29.412-12.043 31.446-27.587h-62.892c2.034 15.544 15.356 27.587 31.446 27.587zm45.621-114.03h-1.886-87.469-1.89c-6.544 0-11.869 4.608-11.869 10.272s5.325 10.271 11.869 10.271h91.245c6.546 0 11.873-4.607 11.873-10.271s-5.326-10.272-11.873-10.272zm0 28.814h-91.245c-6.544 0-11.869 4.608-11.869 10.272s5.325 10.272 11.869 10.272h91.245c6.546 0 11.873-4.608 11.873-10.272s-5.326-10.272-11.873-10.272zm130.694-412.965-60.252-13.819-15.575 67.911c-.366 1.595-1.637 2.824-3.243 3.135-1.604.313-3.245-.353-4.181-1.695-3.398-4.873-8.432-8.281-14.174-9.597-1.762-.404-3.561-.609-5.347-.609-11.149 0-20.68 7.603-23.177 18.489-2.934 12.792 5.088 25.587 17.881 28.521 5.724 1.314 11.797.422 16.942-2.463 1.428-.799 3.191-.683 4.501.297s1.918 2.641 1.552 4.235l-15.577 67.911 60.251 13.82c-1.247-4.891-1.327-10.032-.183-15.024 3.364-14.667 16.21-24.911 31.24-24.911 2.408 0 4.828.275 7.194.817 8.35 1.915 15.455 6.967 20.006 14.227 4.551 7.259 6.002 15.856 4.087 24.206-1.145 4.992-3.458 9.585-6.712 13.443l60.252 13.82 15.576-67.913c.366-1.595 1.637-2.823 3.243-3.135 1.606-.311 3.245.353 4.18 1.694 3.4 4.875 8.435 8.285 14.177 9.602 1.759.403 3.557.608 5.343.608 11.15 0 20.682-7.602 23.179-18.488 2.934-12.793-5.087-25.588-17.88-28.523-5.722-1.313-11.798-.422-16.941 2.461-1.427.799-3.191.683-4.5-.297-1.31-.98-1.918-2.641-1.553-4.235l15.575-67.91-60.252-13.82c1.248 4.891 1.328 10.033.183 15.025-3.364 14.667-16.21 24.91-31.24 24.91-2.408 0-4.828-.275-7.193-.817-17.239-3.955-28.046-21.195-24.092-38.433 1.144-4.991 3.456-9.584 6.71-13.443zm117.219 422.89c-.671 1.104-.787 2.459-.313 3.662l13.571 34.461c-7.767 7.717-16.562 14.128-26.203 19.104l-28.641-23.606c-.996-.821-2.317-1.13-3.573-.835-10.857 2.542-22.104 2.542-32.961 0-1.256-.294-2.578.015-3.573.835l-28.641 23.606c-9.635-4.969-18.431-11.381-26.205-19.101l13.574-34.464c.473-1.203.358-2.558-.314-3.663-5.812-9.568-9.229-20.115-10.16-31.349-.106-1.288-.809-2.452-1.899-3.147l-31.285-19.934c1.735-10.792 5.089-21.143 9.994-30.843l37.056 2.264c1.288.075 2.539-.449 3.383-1.425 7.275-8.424 16.492-15.133 26.656-19.4 1.19-.5 2.08-1.527 2.402-2.778l9.278-35.869c5.434-.837 10.876-1.262 16.215-1.262 5.337 0 10.779.424 16.214 1.262l9.279 35.87c.324 1.25 1.212 2.277 2.403 2.777 10.161 4.267 19.378 10.976 26.655 19.401.844.976 2.091 1.5 3.382 1.425l37.056-2.264c4.905 9.7 8.259 20.051 9.995 30.843l-31.286 19.934c-1.09.695-1.792 1.858-1.899 3.146-.931 11.235-4.349 21.783-10.16 31.35zm-22.859-37.367c0-21.383-17.397-38.78-38.78-38.78-21.385 0-38.782 17.396-38.782 38.78s17.397 38.78 38.782 38.78c21.383 0 38.78-17.396 38.78-38.78z" display="inline"/></g><g id="Outline" display="none"><path d="m209.334 355.207c0-4.847 3.691-11.202 7.9-13.601.28-.16 6.945-3.981 14.373-10.14 18.356-15.224 31.939-35.25 39.281-57.913.395-1.218.183-2.55-.57-3.585-.113-.156-.237-.303-.37-.439 2.657-4.645 4.077-9.914 4.077-15.332 0-17.106-13.917-31.024-31.022-31.024s-31.022 13.917-31.022 31.024c0 4.952 1.187 9.782 3.42 14.124h-59.789v-67.39c0-1.582-.933-3.016-2.379-3.657-1.447-.642-3.135-.369-4.307.693-4.259 3.86-9.743 5.985-15.44 5.985-12.695 0-23.023-10.328-23.023-23.023s10.328-23.022 23.023-23.022c5.7 0 11.184 2.125 15.439 5.983 1.172 1.063 2.86 1.335 4.307.693 1.447-.641 2.379-2.074 2.379-3.657v-47.416c0-2.209-1.791-4-4-4-69.142 0-125.393 56.252-125.393 125.396 0 37.437 16.547 72.629 45.399 96.554 7.428 6.16 14.09 9.984 14.373 10.146 4.21 2.398 7.903 8.754 7.903 13.6v23.084c0 3.784 1.37 7.254 3.641 9.94-5.702 3.132-9.529 8.869-9.529 15.414 0 5.619 2.822 10.643 7.229 13.934-4.407 3.291-7.229 8.315-7.229 13.935s2.822 10.645 7.229 13.936c-4.408 3.291-7.229 8.314-7.229 13.934 0 9.89 8.738 17.935 19.479 17.935h5.649c2.01 19.457 18.501 34.682 38.481 34.682s36.471-15.225 38.479-34.682h5.646c10.744 0 19.484-8.045 19.484-17.935 0-5.619-2.823-10.643-7.231-13.934 4.408-3.291 7.231-8.316 7.231-13.936s-2.823-10.644-7.231-13.935c4.408-3.291 7.231-8.314 7.231-13.934 0-6.544-3.827-12.281-9.529-15.413 2.271-2.686 3.642-6.156 3.642-9.941v-23.083zm-13.596 114.111h-9.44-69.368-9.444c-6.33 0-11.479-4.457-11.479-9.935s5.15-9.934 11.479-9.934h88.252c6.332 0 11.484 4.456 11.484 9.934s-5.152 9.935-11.484 9.935zm-44.124 34.682c-15.563 0-28.447-11.648-30.415-26.682h60.829c-1.967 15.034-14.851 26.682-30.414 26.682zm-4.002-386.422v35.75c-4.342-2.233-9.172-3.421-14.126-3.421-17.106 0-31.023 13.917-31.023 31.022s13.917 31.023 31.023 31.023c4.953 0 9.783-1.188 14.126-3.423v63.791c0 2.209 1.791 4 4 4h71.386c1.582 0 3.016-.933 3.657-2.379s.37-3.134-.692-4.307c-3.857-4.258-5.982-9.74-5.982-15.438 0-12.695 10.328-23.024 23.022-23.024s23.022 10.329 23.022 23.024c0 5.699-2.125 11.181-5.984 15.437-1.063 1.172-1.335 2.861-.694 4.308.436.982 1.237 1.729 2.202 2.105-7.172 19.181-19.213 36.128-35.048 49.262-6.861 5.69-13.167 9.313-13.227 9.348-6.695 3.815-11.939 12.842-11.939 20.551v23.084c0 4.091-3.329 7.419-7.42 7.419h-84.6c-4.091 0-7.419-3.328-7.419-7.419v-23.084c0-7.708-5.246-16.736-11.938-20.549-.063-.036-6.366-3.663-13.231-9.355-27.013-22.4-42.506-55.348-42.506-90.396-.001-63.394 50.506-115.212 113.391-117.329zm-40.126 276.132h1.828 84.6 1.824c6.332 0 11.484 4.457 11.484 9.935s-5.152 9.934-11.484 9.934h-88.252c-6.33 0-11.479-4.456-11.479-9.934s5.15-9.935 11.479-9.935zm88.252 47.739h-88.252c-6.33 0-11.479-4.457-11.479-9.936 0-5.478 5.15-9.935 11.479-9.935h88.252c6.332 0 11.484 4.457 11.484 9.935 0 5.479-5.152 9.936-11.484 9.936z" display="inline"/><path d="m332.733 23.24c1.298-.905 1.94-2.49 1.639-4.043-.302-1.553-1.49-2.783-3.033-3.137l-69.579-15.959c-1.033-.236-2.12-.054-3.019.51-.899.563-1.537 1.461-1.774 2.495l-14.26 62.175c-3.733-3.148-8.175-5.385-13.003-6.491-2.289-.525-4.63-.791-6.959-.791-14.536 0-26.96 9.908-30.215 24.094-3.823 16.672 6.631 33.347 23.303 37.171 4.794 1.1 9.8 1.033 14.534-.178l-14.261 62.176c-.237 1.034-.054 2.12.51 3.019s1.461 1.537 2.495 1.774l69.579 15.959c.313.071.63.1.939.101 2.198-.013 3.975-1.799 3.975-4 0-.836-.256-1.612-.695-2.253-2.676-4.942-3.463-10.641-2.215-16.087 2.415-10.528 11.633-17.881 22.417-17.881 1.728 0 3.467.198 5.17.588 5.993 1.374 11.093 5 14.359 10.211s4.308 11.381 2.933 17.375c-1.274 5.556-4.571 10.424-9.283 13.708-1.298.905-1.941 2.49-1.64 4.043s1.49 2.783 3.033 3.137l69.583 15.96c.295.068.595.101.894.101.746 0 1.483-.208 2.125-.611.899-.563 1.537-1.461 1.774-2.495l14.261-62.177c3.734 3.149 8.177 5.388 13.005 6.495 2.288.524 4.627.79 6.956.79 14.537 0 26.962-9.907 30.216-24.093 3.824-16.673-6.629-33.349-23.303-37.174-4.796-1.1-9.8-1.033-14.533.177l14.26-62.175c.494-2.153-.852-4.299-3.005-4.793l-69.583-15.96c-1.542-.351-3.148.235-4.096 1.502s-1.061 2.974-.287 4.354c2.811 5.01 3.656 10.829 2.382 16.385-2.415 10.528-11.633 17.881-22.417 17.881-1.728 0-3.467-.198-5.169-.588-12.374-2.838-20.131-15.213-17.292-27.587 1.273-5.553 4.568-10.423 9.279-13.708zm43.397 25.792c1.107-4.829 1.03-9.802-.177-14.532l58.275 13.367-15.064 65.683c-.354 1.542.235 3.148 1.502 4.096 1.266.948 2.973 1.061 4.353.287 4.975-2.789 10.852-3.65 16.386-2.38 12.374 2.838 20.131 15.214 17.293 27.587-2.415 10.528-11.634 17.881-22.418 17.881-1.727 0-3.466-.198-5.167-.588-5.554-1.273-10.423-4.571-13.712-9.287-.904-1.297-2.489-1.939-4.043-1.639-1.553.302-2.783 1.49-3.137 3.033l-15.065 65.686-58.276-13.367c3.147-3.732 5.384-8.174 6.492-13.002 1.853-8.076.449-16.391-3.953-23.412s-11.273-11.908-19.35-13.76c-2.288-.524-4.629-.791-6.958-.791-14.537 0-26.961 9.907-30.215 24.094-1.106 4.829-1.029 9.801.177 14.531l-58.275-13.366 15.066-65.684c.354-1.542-.235-3.148-1.501-4.096-1.267-.948-2.973-1.06-4.354-.287-4.977 2.791-10.851 3.653-16.387 2.382-12.374-2.838-20.132-15.213-17.294-27.585 2.415-10.529 11.634-17.882 22.417-17.882 1.728 0 3.468.198 5.172.589 5.554 1.272 10.423 4.569 13.709 9.282.905 1.298 2.492 1.942 4.043 1.639 1.553-.301 2.783-1.49 3.137-3.033l15.064-65.685 58.275 13.366c-3.147 3.732-5.383 8.175-6.49 13.003-3.824 16.672 6.629 33.348 23.302 37.172 2.288.524 4.628.791 6.957.791 14.537 0 26.962-9.907 30.216-24.093z" display="inline"/><path d="m483.93 383.887c1.316-.838 2.024-2.366 1.814-3.912-1.785-13.146-5.855-25.701-12.097-37.317-.738-1.375-2.208-2.193-3.768-2.1l-36.487 2.229c-7.169-7.879-15.946-14.267-25.576-18.615l-9.138-35.324c-.392-1.514-1.63-2.661-3.169-2.936-6.553-1.17-13.149-1.764-19.606-1.764-6.458 0-13.056.593-19.608 1.764-1.54.275-2.778 1.422-3.169 2.936l-9.136 35.324c-9.631 4.349-18.408 10.736-25.576 18.615l-36.487-2.229c-1.554-.091-3.029.725-3.768 2.1-6.242 11.616-10.312 24.171-12.097 37.317-.21 1.546.498 3.073 1.814 3.912l30.801 19.625c1.154 10.578 4.501 20.904 9.753 30.092l-13.366 33.935c-.573 1.454-.246 3.108.835 4.235 9.205 9.592 19.87 17.362 31.698 23.094 1.406.681 3.083.481 4.289-.513l28.205-23.247c10.444 2.168 21.179 2.168 31.623 0l28.205 23.247c.731.602 1.633.913 2.544.913.593 0 1.19-.132 1.745-.401 11.837-5.74 22.5-13.511 31.695-23.098 1.082-1.127 1.408-2.781.835-4.234l-13.362-33.932c5.25-9.187 8.597-19.512 9.752-30.091zm-38.583 16.97c-.901 10.866-4.207 21.067-9.827 30.321-.649 1.068-.761 2.379-.303 3.542l13.125 33.331c-7.512 7.463-16.018 13.665-25.343 18.477l-27.701-22.832c-.963-.794-2.241-1.093-3.456-.808-10.501 2.458-21.379 2.458-31.88 0-1.215-.284-2.493.014-3.456.808l-27.702 22.832c-9.319-4.806-17.827-11.007-25.346-18.475l13.129-33.333c.458-1.163.346-2.474-.303-3.542-5.621-9.254-8.927-19.455-9.827-30.32-.103-1.246-.783-2.372-1.837-3.043l-30.259-19.28c1.678-10.438 4.922-20.45 9.667-29.832l35.84 2.19c1.245.073 2.456-.434 3.271-1.378 7.037-8.148 15.952-14.637 25.782-18.764 1.151-.483 2.011-1.477 2.324-2.687l8.973-34.693c5.256-.81 10.52-1.22 15.684-1.22 5.162 0 10.426.41 15.682 1.22l8.975 34.693c.313 1.209 1.172 2.203 2.324 2.686 9.828 4.127 18.743 10.616 25.781 18.765.816.944 2.022 1.451 3.271 1.378l35.84-2.19c4.744 9.382 7.988 19.394 9.667 29.832l-30.259 19.28c-1.053.671-1.732 1.797-1.836 3.042z" display="inline"/><path d="m375.903 357.529c-20.683 0-37.51 16.826-37.51 37.508s16.827 37.508 37.51 37.508c20.682 0 37.508-16.826 37.508-37.508s-16.826-37.508-37.508-37.508zm0 67.016c-16.271 0-29.51-13.237-29.51-29.508s13.238-29.508 29.51-29.508c16.271 0 29.508 13.237 29.508 29.508s-13.237 29.508-29.508 29.508z" display="inline"/></g><g id="Outline_Blue" display="none" fill="#57a4ff"><path d="m209.334 355.207c0-4.847 3.691-11.202 7.9-13.601.28-.16 6.945-3.981 14.373-10.14 18.356-15.224 31.939-35.25 39.281-57.913.395-1.218.183-2.55-.57-3.585-.113-.156-.237-.303-.37-.439 2.657-4.645 4.077-9.914 4.077-15.332 0-17.106-13.917-31.024-31.022-31.024s-31.022 13.917-31.022 31.024c0 4.952 1.187 9.782 3.42 14.124h-59.789v-67.39c0-1.582-.933-3.016-2.379-3.657-1.447-.642-3.135-.369-4.307.693-4.259 3.86-9.743 5.985-15.44 5.985-12.695 0-23.023-10.328-23.023-23.023s10.328-23.022 23.023-23.022c5.7 0 11.184 2.125 15.439 5.983 1.172 1.063 2.86 1.335 4.307.693 1.447-.641 2.379-2.074 2.379-3.657v-47.416c0-2.209-1.791-4-4-4-69.142 0-125.393 56.252-125.393 125.396 0 37.437 16.547 72.629 45.399 96.554 7.428 6.16 14.09 9.984 14.373 10.146 4.21 2.398 7.903 8.754 7.903 13.6v23.084c0 3.784 1.37 7.254 3.641 9.94-5.702 3.132-9.529 8.869-9.529 15.414 0 5.619 2.822 10.643 7.229 13.934-4.407 3.291-7.229 8.315-7.229 13.935s2.822 10.645 7.229 13.936c-4.408 3.291-7.229 8.314-7.229 13.934 0 9.89 8.738 17.935 19.479 17.935h5.649c2.01 19.457 18.501 34.682 38.481 34.682s36.471-15.225 38.479-34.682h5.646c10.744 0 19.484-8.045 19.484-17.935 0-5.619-2.823-10.643-7.231-13.934 4.408-3.291 7.231-8.316 7.231-13.936s-2.823-10.644-7.231-13.935c4.408-3.291 7.231-8.314 7.231-13.934 0-6.544-3.827-12.281-9.529-15.413 2.271-2.686 3.642-6.156 3.642-9.941v-23.083zm-13.596 114.111h-9.44-69.368-9.444c-6.33 0-11.479-4.457-11.479-9.935s5.15-9.934 11.479-9.934h88.252c6.332 0 11.484 4.456 11.484 9.934s-5.152 9.935-11.484 9.935zm-44.124 34.682c-15.563 0-28.447-11.648-30.415-26.682h60.829c-1.967 15.034-14.851 26.682-30.414 26.682zm-4.002-386.422v35.75c-4.342-2.233-9.172-3.421-14.126-3.421-17.106 0-31.023 13.917-31.023 31.022s13.917 31.023 31.023 31.023c4.953 0 9.783-1.188 14.126-3.423v63.791c0 2.209 1.791 4 4 4h71.386c1.582 0 3.016-.933 3.657-2.379s.37-3.134-.692-4.307c-3.857-4.258-5.982-9.74-5.982-15.438 0-12.695 10.328-23.024 23.022-23.024s23.022 10.329 23.022 23.024c0 5.699-2.125 11.181-5.984 15.437-1.063 1.172-1.335 2.861-.694 4.308.436.982 1.237 1.729 2.202 2.105-7.172 19.181-19.213 36.128-35.048 49.262-6.861 5.69-13.167 9.313-13.227 9.348-6.695 3.815-11.939 12.842-11.939 20.551v23.084c0 4.091-3.329 7.419-7.42 7.419h-84.6c-4.091 0-7.419-3.328-7.419-7.419v-23.084c0-7.708-5.246-16.736-11.938-20.549-.063-.036-6.366-3.663-13.231-9.355-27.013-22.4-42.506-55.348-42.506-90.396-.001-63.394 50.506-115.212 113.391-117.329zm-40.126 276.132h1.828 84.6 1.824c6.332 0 11.484 4.457 11.484 9.935s-5.152 9.934-11.484 9.934h-88.252c-6.33 0-11.479-4.456-11.479-9.934s5.15-9.935 11.479-9.935zm88.252 47.739h-88.252c-6.33 0-11.479-4.457-11.479-9.936 0-5.478 5.15-9.935 11.479-9.935h88.252c6.332 0 11.484 4.457 11.484 9.935 0 5.479-5.152 9.936-11.484 9.936z" display="inline"/><path d="m332.733 23.24c1.298-.905 1.94-2.49 1.639-4.043-.302-1.553-1.49-2.783-3.033-3.137l-69.579-15.959c-1.033-.236-2.12-.054-3.019.51-.899.563-1.537 1.461-1.774 2.495l-14.26 62.175c-3.733-3.148-8.175-5.385-13.003-6.491-2.289-.525-4.63-.791-6.959-.791-14.536 0-26.96 9.908-30.215 24.094-3.823 16.672 6.631 33.347 23.303 37.171 4.794 1.1 9.8 1.033 14.534-.178l-14.261 62.176c-.237 1.034-.054 2.12.51 3.019s1.461 1.537 2.495 1.774l69.579 15.959c.313.071.63.1.939.101 2.198-.013 3.975-1.799 3.975-4 0-.836-.256-1.612-.695-2.253-2.676-4.942-3.463-10.641-2.215-16.087 2.415-10.528 11.633-17.881 22.417-17.881 1.728 0 3.467.198 5.17.588 5.993 1.374 11.093 5 14.359 10.211s4.308 11.381 2.933 17.375c-1.274 5.556-4.571 10.424-9.283 13.708-1.298.905-1.941 2.49-1.64 4.043s1.49 2.783 3.033 3.137l69.583 15.96c.295.068.595.101.894.101.746 0 1.483-.208 2.125-.611.899-.563 1.537-1.461 1.774-2.495l14.261-62.177c3.734 3.149 8.177 5.388 13.005 6.495 2.288.524 4.627.79 6.956.79 14.537 0 26.962-9.907 30.216-24.093 3.824-16.673-6.629-33.349-23.303-37.174-4.796-1.1-9.8-1.033-14.533.177l14.26-62.175c.494-2.153-.852-4.299-3.005-4.793l-69.583-15.96c-1.542-.351-3.148.235-4.096 1.502s-1.061 2.974-.287 4.354c2.811 5.01 3.656 10.829 2.382 16.385-2.415 10.528-11.633 17.881-22.417 17.881-1.728 0-3.467-.198-5.169-.588-12.374-2.838-20.131-15.213-17.292-27.587 1.273-5.553 4.568-10.423 9.279-13.708zm43.397 25.792c1.107-4.829 1.03-9.802-.177-14.532l58.275 13.367-15.064 65.683c-.354 1.542.235 3.148 1.502 4.096 1.266.948 2.973 1.061 4.353.287 4.975-2.789 10.852-3.65 16.386-2.38 12.374 2.838 20.131 15.214 17.293 27.587-2.415 10.528-11.634 17.881-22.418 17.881-1.727 0-3.466-.198-5.167-.588-5.554-1.273-10.423-4.571-13.712-9.287-.904-1.297-2.489-1.939-4.043-1.639-1.553.302-2.783 1.49-3.137 3.033l-15.065 65.686-58.276-13.367c3.147-3.732 5.384-8.174 6.492-13.002 1.853-8.076.449-16.391-3.953-23.412s-11.273-11.908-19.35-13.76c-2.288-.524-4.629-.791-6.958-.791-14.537 0-26.961 9.907-30.215 24.094-1.106 4.829-1.029 9.801.177 14.531l-58.275-13.366 15.066-65.684c.354-1.542-.235-3.148-1.501-4.096-1.267-.948-2.973-1.06-4.354-.287-4.977 2.791-10.851 3.653-16.387 2.382-12.374-2.838-20.132-15.213-17.294-27.585 2.415-10.529 11.634-17.882 22.417-17.882 1.728 0 3.468.198 5.172.589 5.554 1.272 10.423 4.569 13.709 9.282.905 1.298 2.492 1.942 4.043 1.639 1.553-.301 2.783-1.49 3.137-3.033l15.064-65.685 58.275 13.366c-3.147 3.732-5.383 8.175-6.49 13.003-3.824 16.672 6.629 33.348 23.302 37.172 2.288.524 4.628.791 6.957.791 14.537 0 26.962-9.907 30.216-24.093z" display="inline"/><path d="m483.93 383.887c1.316-.838 2.024-2.366 1.814-3.912-1.785-13.146-5.855-25.701-12.097-37.317-.738-1.375-2.208-2.193-3.768-2.1l-36.487 2.229c-7.169-7.879-15.946-14.267-25.576-18.615l-9.138-35.324c-.392-1.514-1.63-2.661-3.169-2.936-6.553-1.17-13.149-1.764-19.606-1.764-6.458 0-13.056.593-19.608 1.764-1.54.275-2.778 1.422-3.169 2.936l-9.136 35.324c-9.631 4.349-18.408 10.736-25.576 18.615l-36.487-2.229c-1.554-.091-3.029.725-3.768 2.1-6.242 11.616-10.312 24.171-12.097 37.317-.21 1.546.498 3.073 1.814 3.912l30.801 19.625c1.154 10.578 4.501 20.904 9.753 30.092l-13.366 33.935c-.573 1.454-.246 3.108.835 4.235 9.205 9.592 19.87 17.362 31.698 23.094 1.406.681 3.083.481 4.289-.513l28.205-23.247c10.444 2.168 21.179 2.168 31.623 0l28.205 23.247c.731.602 1.633.913 2.544.913.593 0 1.19-.132 1.745-.401 11.837-5.74 22.5-13.511 31.695-23.098 1.082-1.127 1.408-2.781.835-4.234l-13.362-33.932c5.25-9.187 8.597-19.512 9.752-30.091zm-38.583 16.97c-.901 10.866-4.207 21.067-9.827 30.321-.649 1.068-.761 2.379-.303 3.542l13.125 33.331c-7.512 7.463-16.018 13.665-25.343 18.477l-27.701-22.832c-.963-.794-2.241-1.093-3.456-.808-10.501 2.458-21.379 2.458-31.88 0-1.215-.284-2.493.014-3.456.808l-27.702 22.832c-9.319-4.806-17.827-11.007-25.346-18.475l13.129-33.333c.458-1.163.346-2.474-.303-3.542-5.621-9.254-8.927-19.455-9.827-30.32-.103-1.246-.783-2.372-1.837-3.043l-30.259-19.28c1.678-10.438 4.922-20.45 9.667-29.832l35.84 2.19c1.245.073 2.456-.434 3.271-1.378 7.037-8.148 15.952-14.637 25.782-18.764 1.151-.483 2.011-1.477 2.324-2.687l8.973-34.693c5.256-.81 10.52-1.22 15.684-1.22 5.162 0 10.426.41 15.682 1.22l8.975 34.693c.313 1.209 1.172 2.203 2.324 2.686 9.828 4.127 18.743 10.616 25.781 18.765.816.944 2.022 1.451 3.271 1.378l35.84-2.19c4.744 9.382 7.988 19.394 9.667 29.832l-30.259 19.28c-1.053.671-1.732 1.797-1.836 3.042z" display="inline"/><path d="m375.903 357.529c-20.683 0-37.51 16.826-37.51 37.508s16.827 37.508 37.51 37.508c20.682 0 37.508-16.826 37.508-37.508s-16.826-37.508-37.508-37.508zm0 67.016c-16.271 0-29.51-13.237-29.51-29.508s13.238-29.508 29.51-29.508c16.271 0 29.508 13.237 29.508 29.508s-13.237 29.508-29.508 29.508z" display="inline"/></g><g id="Gradient" display="none"><path d="m209.334 355.207c0-4.847 3.691-11.202 7.9-13.601.28-.16 6.945-3.981 14.373-10.14 18.356-15.224 31.939-35.25 39.281-57.913.395-1.218.183-2.55-.57-3.585-.113-.156-.237-.303-.37-.439 2.657-4.645 4.077-9.914 4.077-15.332 0-17.106-13.917-31.024-31.022-31.024s-31.022 13.917-31.022 31.024c0 4.952 1.187 9.782 3.42 14.124h-59.789v-67.39c0-1.582-.933-3.016-2.379-3.657-1.447-.642-3.135-.369-4.307.693-4.259 3.86-9.743 5.985-15.44 5.985-12.695 0-23.023-10.328-23.023-23.023s10.328-23.022 23.023-23.022c5.7 0 11.184 2.125 15.439 5.983 1.172 1.063 2.86 1.335 4.307.693 1.447-.641 2.379-2.074 2.379-3.657v-47.416c0-2.209-1.791-4-4-4-69.142 0-125.393 56.252-125.393 125.396 0 37.437 16.547 72.629 45.399 96.554 7.428 6.16 14.09 9.984 14.373 10.146 4.21 2.398 7.903 8.754 7.903 13.6v23.084c0 3.784 1.37 7.254 3.641 9.94-5.702 3.132-9.529 8.869-9.529 15.414 0 5.619 2.822 10.643 7.229 13.934-4.407 3.291-7.229 8.315-7.229 13.935s2.822 10.645 7.229 13.936c-4.408 3.291-7.229 8.314-7.229 13.934 0 9.89 8.738 17.935 19.479 17.935h5.649c2.01 19.457 18.501 34.682 38.481 34.682s36.471-15.225 38.479-34.682h5.646c10.744 0 19.484-8.045 19.484-17.935 0-5.619-2.823-10.643-7.231-13.934 4.408-3.291 7.231-8.316 7.231-13.936s-2.823-10.644-7.231-13.935c4.408-3.291 7.231-8.314 7.231-13.934 0-6.544-3.827-12.281-9.529-15.413 2.271-2.686 3.642-6.156 3.642-9.941v-23.083zm-13.596 114.111h-9.44-69.368-9.444c-6.33 0-11.479-4.457-11.479-9.935s5.15-9.934 11.479-9.934h88.252c6.332 0 11.484 4.456 11.484 9.934s-5.152 9.935-11.484 9.935zm-44.124 34.682c-15.563 0-28.447-11.648-30.415-26.682h60.829c-1.967 15.034-14.851 26.682-30.414 26.682zm-4.002-386.422v35.75c-4.342-2.233-9.172-3.421-14.126-3.421-17.106 0-31.023 13.917-31.023 31.022s13.917 31.023 31.023 31.023c4.953 0 9.783-1.188 14.126-3.423v63.791c0 2.209 1.791 4 4 4h71.386c1.582 0 3.016-.933 3.657-2.379s.37-3.134-.692-4.307c-3.857-4.258-5.982-9.74-5.982-15.438 0-12.695 10.328-23.024 23.022-23.024s23.022 10.329 23.022 23.024c0 5.699-2.125 11.181-5.984 15.437-1.063 1.172-1.335 2.861-.694 4.308.436.982 1.237 1.729 2.202 2.105-7.172 19.181-19.213 36.128-35.048 49.262-6.861 5.69-13.167 9.313-13.227 9.348-6.695 3.815-11.939 12.842-11.939 20.551v23.084c0 4.091-3.329 7.419-7.42 7.419h-84.6c-4.091 0-7.419-3.328-7.419-7.419v-23.084c0-7.708-5.246-16.736-11.938-20.549-.063-.036-6.366-3.663-13.231-9.355-27.013-22.4-42.506-55.348-42.506-90.396-.001-63.394 50.506-115.212 113.391-117.329zm-40.126 276.132h1.828 84.6 1.824c6.332 0 11.484 4.457 11.484 9.935s-5.152 9.934-11.484 9.934h-88.252c-6.33 0-11.479-4.456-11.479-9.934s5.15-9.935 11.479-9.935zm88.252 47.739h-88.252c-6.33 0-11.479-4.457-11.479-9.936 0-5.478 5.15-9.935 11.479-9.935h88.252c6.332 0 11.484 4.457 11.484 9.935 0 5.479-5.152 9.936-11.484 9.936zm136.995-418.209c1.298-.905 1.94-2.49 1.639-4.043-.302-1.553-1.49-2.783-3.033-3.137l-69.579-15.959c-1.033-.236-2.12-.054-3.019.51-.899.563-1.537 1.461-1.774 2.495l-14.26 62.175c-3.733-3.148-8.175-5.385-13.003-6.491-2.289-.525-4.63-.791-6.959-.791-14.536 0-26.96 9.908-30.215 24.094-3.823 16.672 6.631 33.347 23.303 37.171 4.794 1.1 9.8 1.033 14.534-.178l-14.261 62.176c-.237 1.034-.054 2.12.51 3.019s1.461 1.537 2.495 1.774l69.579 15.959c.313.071.63.1.939.101 2.198-.013 3.975-1.799 3.975-4 0-.836-.256-1.612-.695-2.253-2.676-4.942-3.463-10.641-2.215-16.087 2.415-10.528 11.633-17.881 22.417-17.881 1.728 0 3.467.198 5.17.588 5.993 1.374 11.093 5 14.359 10.211s4.308 11.381 2.933 17.375c-1.274 5.556-4.571 10.424-9.283 13.708-1.298.905-1.941 2.49-1.64 4.043s1.49 2.783 3.033 3.137l69.583 15.96c.295.068.595.101.894.101.746 0 1.483-.208 2.125-.611.899-.563 1.537-1.461 1.774-2.495l14.261-62.177c3.734 3.149 8.177 5.388 13.005 6.495 2.288.524 4.627.79 6.956.79 14.537 0 26.962-9.907 30.216-24.093 3.824-16.673-6.629-33.349-23.303-37.174-4.796-1.1-9.8-1.033-14.533.177l14.26-62.175c.494-2.153-.852-4.299-3.005-4.793l-69.583-15.96c-1.542-.351-3.148.235-4.096 1.502s-1.061 2.974-.287 4.354c2.811 5.01 3.656 10.829 2.382 16.385-2.415 10.528-11.633 17.881-22.417 17.881-1.728 0-3.467-.198-5.169-.588-12.374-2.838-20.131-15.213-17.292-27.587 1.273-5.553 4.568-10.423 9.279-13.708zm43.397 25.792c1.107-4.829 1.03-9.802-.177-14.532l58.275 13.367-15.064 65.683c-.354 1.542.235 3.148 1.502 4.096 1.266.948 2.973 1.061 4.353.287 4.975-2.789 10.852-3.65 16.386-2.38 12.374 2.838 20.131 15.214 17.293 27.587-2.415 10.528-11.634 17.881-22.418 17.881-1.727 0-3.466-.198-5.167-.588-5.554-1.273-10.423-4.571-13.712-9.287-.904-1.297-2.489-1.939-4.043-1.639-1.553.302-2.783 1.49-3.137 3.033l-15.065 65.686-58.276-13.367c3.147-3.732 5.384-8.174 6.492-13.002 1.853-8.076.449-16.391-3.953-23.412s-11.273-11.908-19.35-13.76c-2.288-.524-4.629-.791-6.958-.791-14.537 0-26.961 9.907-30.215 24.094-1.106 4.829-1.029 9.801.177 14.531l-58.275-13.366 15.066-65.684c.354-1.542-.235-3.148-1.501-4.096-1.267-.948-2.973-1.06-4.354-.287-4.977 2.791-10.851 3.653-16.387 2.382-12.374-2.838-20.132-15.213-17.294-27.585 2.415-10.529 11.634-17.882 22.417-17.882 1.728 0 3.468.198 5.172.589 5.554 1.272 10.423 4.569 13.709 9.282.905 1.298 2.492 1.942 4.043 1.639 1.553-.301 2.783-1.49 3.137-3.033l15.064-65.685 58.275 13.366c-3.147 3.732-5.383 8.175-6.49 13.003-3.824 16.672 6.629 33.348 23.302 37.172 2.288.524 4.628.791 6.957.791 14.537 0 26.962-9.907 30.216-24.093zm107.8 334.855c1.316-.838 2.024-2.366 1.814-3.912-1.785-13.146-5.855-25.701-12.097-37.317-.738-1.375-2.208-2.193-3.768-2.1l-36.487 2.229c-7.169-7.879-15.946-14.267-25.576-18.615l-9.138-35.324c-.392-1.514-1.63-2.661-3.169-2.936-6.553-1.17-13.149-1.764-19.606-1.764-6.458 0-13.056.593-19.608 1.764-1.54.275-2.778 1.422-3.169 2.936l-9.136 35.324c-9.631 4.349-18.408 10.736-25.576 18.615l-36.487-2.229c-1.554-.091-3.029.725-3.768 2.1-6.242 11.616-10.312 24.171-12.097 37.317-.21 1.546.498 3.073 1.814 3.912l30.801 19.625c1.154 10.578 4.501 20.904 9.753 30.092l-13.366 33.935c-.573 1.454-.246 3.108.835 4.235 9.205 9.592 19.87 17.362 31.698 23.094 1.406.681 3.083.481 4.289-.513l28.205-23.247c10.444 2.168 21.179 2.168 31.623 0l28.205 23.247c.731.602 1.633.913 2.544.913.593 0 1.19-.132 1.745-.401 11.837-5.74 22.5-13.511 31.695-23.098 1.082-1.127 1.408-2.781.835-4.234l-13.362-33.932c5.25-9.187 8.597-19.512 9.752-30.091zm-38.583 16.97c-.901 10.866-4.207 21.067-9.827 30.321-.649 1.068-.761 2.379-.303 3.542l13.125 33.331c-7.512 7.463-16.018 13.665-25.343 18.477l-27.701-22.832c-.963-.794-2.241-1.093-3.456-.808-10.501 2.458-21.379 2.458-31.88 0-1.215-.284-2.493.014-3.456.808l-27.702 22.832c-9.319-4.806-17.827-11.007-25.346-18.475l13.129-33.333c.458-1.163.346-2.474-.303-3.542-5.621-9.254-8.927-19.455-9.827-30.32-.103-1.246-.783-2.372-1.837-3.043l-30.259-19.28c1.678-10.438 4.922-20.45 9.667-29.832l35.84 2.19c1.245.073 2.456-.434 3.271-1.378 7.037-8.148 15.952-14.637 25.782-18.764 1.151-.483 2.011-1.477 2.324-2.687l8.973-34.693c5.256-.81 10.52-1.22 15.684-1.22 5.162 0 10.426.41 15.682 1.22l8.975 34.693c.313 1.209 1.172 2.203 2.324 2.686 9.828 4.127 18.743 10.616 25.781 18.765.816.944 2.022 1.451 3.271 1.378l35.84-2.19c4.744 9.382 7.988 19.394 9.667 29.832l-30.259 19.28c-1.053.671-1.732 1.797-1.836 3.042zm-69.444-43.328c-20.683 0-37.51 16.826-37.51 37.508s16.827 37.508 37.51 37.508c20.682 0 37.508-16.826 37.508-37.508s-16.826-37.508-37.508-37.508zm0 67.016c-16.271 0-29.51-13.237-29.51-29.508s13.238-29.508 29.51-29.508c16.271 0 29.508 13.237 29.508 29.508s-13.237 29.508-29.508 29.508z" display="inline" fill="url(#SVGID_1_)"/></g></svg>